#N canvas 441 156 569 405 10;
#X floatatom 24 97 5 0 0 0 - - -, f 5;
#N canvas 772 395 364 397 meta 0;
#X text 23 51 LICENSE GPL v2;
#X text 23 31 KEYWORDS control analysis MIDI;
#X text 23 152 OUTLET_0 float;
#X text 23 192 OUTLET_2 float;
#X text 23 212 OUTLET_3 float;
#X text 23 232 OUTLET_4 float;
#X text 23 172 OUTLET_1 float;
#X text 24 347 AUTHOR Ricky Graham <ricky@rickygraham.net>;
#X text 23 130 INLET_0 float - MIDI range (0 - 127);
#X text 23 253 OUTLET_5 float;
#X text 23 273 OUTLET_6 float;
#X text 23 293 OUTLET_7 float;
#X text 23 71 DESCRIPTION Outputs pitch class \, basic space \, closure
\, tension \, ratios of asymmetrical attraction \, perceptual fusion
\, pcd \, and basic space symbol.;
#X text 23 313 OUTLET_8 symbol;
#X restore 490 355 pd meta;
#X text 18 20 [lerdahl] v. 1 (2015) for Pd written by Ricky Graham
<ricky@rickygraham.net>;
#X text 20 57 Melodic abstractions based on Fred Lerdahl's TPS book
;
#X text 455 374 also: [ler \$1];
#X floatatom 101 135 5 0 0 0 - - -, f 5;
#X msg 101 157 offset \$1;
#X msg 243 157 dorian;
#X msg 188 157 ionian;
#X floatatom 31 225 5 0 0 0 - - -, f 5;
#X text 79 222 <- basic space;
#X floatatom 45 272 10 0 0 0 - - -, f 10;
#X floatatom 53 297 10 0 0 0 - - -, f 10;
#X floatatom 60 321 10 0 0 0 - - -, f 10;
#X text 118 294 <- ratio of asymmetrical attraction;
#X floatatom 67 342 10 0 0 0 - - -, f 10;
#X floatatom 38 247 10 0 0 0 - - -, f 10;
#X text 105 245 <- closure;
#X text 133 339 <- pitch class distance;
#X floatatom 24 203 5 0 0 0 - - -, f 5;
#X text 71 201 <- pitch class;
#X symbolatom 185 191 10 0 0 0 - - -, f 10;
#X text 252 190 <- name of basic space;
#X msg 293 157 phrygian;
#X msg 355 157 lydian;
#X text 139 133 <- pitch class offset;
#X text 64 95 Default: C3 (60) Ionian / Major;
#X obj 24 174 lerdahl 0;
#X text 401 40 [lerdahl arg1];
#X text 405 155 <- manipulate basic space;
#X text 111 270 <- tension;
#X text 126 317 <- fusion of ratio and pitch class distance;
#X text 402 57 arg1 = initial pc0 offset;
#X connect 0 0 27 0;
#X connect 5 0 6 0;
#X connect 6 0 27 0;
#X connect 7 0 27 0;
#X connect 8 0 27 0;
#X connect 23 0 27 0;
#X connect 24 0 27 0;
#X connect 27 0 19 0;
#X connect 27 1 9 0;
#X connect 27 2 16 0;
#X connect 27 3 11 0;
#X connect 27 4 12 0;
#X connect 27 5 13 0;
#X connect 27 6 15 0;
#X connect 27 7 21 0;
